<?xml version="1.0" standalone="no"?>
<!DOCTYPE svg PUBLIC "-//W3C//DTD SVG 20010904//EN"
 "http://www.w3.org/TR/2001/REC-SVG-20010904/DTD/svg10.dtd">
<svg version="1.0" xmlns="http://www.w3.org/2000/svg"
 width="700.000000pt" height="700.000000pt" viewBox="0 0 700.000000 700.000000"
 preserveAspectRatio="xMidYMid meet">
<metadata>
Created by potrace 1.11, written by Peter Selinger 2001-2013
</metadata>
<g transform="translate(0.000000,700.000000) scale(0.100000,-0.100000)"
fill="#000000" stroke="none">
<path d="M1588 6295 c-2 -2 -39 -6 -82 -10 -43 -4 -88 -9 -100 -11 -190 -36
-295 -66 -422 -120 -319 -135 -569 -358 -721 -644 -50 -93 -107 -251 -127
-350 -8 -41 -18 -88 -21 -105 -10 -49 -14 -340 -5 -387 5 -23 16 -86 25 -138
66 -366 298 -777 607 -1075 159 -153 241 -219 408 -326 273 -176 635 -321 910
-364 25 -4 54 -9 65 -11 167 -32 472 -33 650 -2 33 5 74 12 90 15 69 10 269
74 367 117 l37 16 -15 -43 c-61 -170 -79 -421 -44 -612 133 -737 855 -1339
1750 -1460 200 -27 449 -23 640 11 714 127 1204 581 1285 1189 12 86 7 266
-10 359 -56 323 -216 612 -479 870 -351 343 -825 555 -1371 612 -50 5 -365 5
-373 0 -4 -2 -36 -6 -72 -10 -36 -3 -76 -8 -90 -11 -14 -3 -41 -8 -60 -11 -19
-4 -42 -8 -50 -9 -72 -13 -268 -80 -387 -132 -8 -3 -1 28 16 79 69 203 87 502
45 733 -27 153 -115 404 -184 530 -68 122 -90 159 -139 230 -219 318 -524 586
-891 783 -235 126 -529 224 -783 262 -43 6 -91 14 -105 17 -27 5 -359 12 -364
8z m377 -240 c28 -4 56 -7 63 -7 6 -1 12 -4 12 -7 0 -3 19 -7 43 -8 58 -4 67
-5 67 -12 0 -3 14 -7 32 -8 73 -5 450 -140 474 -169 6 -8 14 -11 17 -7 4 3 15
-1 24 -9 10 -8 48 -30 86 -48 37 -18 67 -37 67 -42 0 -4 5 -8 10 -8 20 0 100
-56 93 -65 -5 -4 -3 -5 3 -2 10 6 94 -48 94 -59 0 -3 -4 -3 -9 1 -5 3 -12 1
-16 -4 -3 -6 4 -8 16 -6 12 3 33 -5 48 -16 88 -68 262 -236 325 -312 17 -22
43 -53 58 -70 15 -18 26 -38 23 -44 -2 -7 0 -12 6 -10 6 1 16 -7 22 -18 7 -11
15 -22 18 -25 6 -5 56 -82 75 -115 60 -108 94 -177 89 -184 -3 -5 1 -11 9 -14
12 -5 39 -81 36 -101 -1 -5 2 -12 7 -15 10 -6 50 -128 57 -174 3 -15 7 -35 10
-45 3 -9 7 -39 10 -65 3 -27 8 -53 11 -58 4 -5 0 -9 -7 -9 -10 0 -10 -2 -1 -8
19 -12 18 -261 -1 -338 -3 -12 -8 -39 -12 -60 -6 -41 -52 -182 -64 -199 -4 -5
-10 -22 -13 -36 -4 -14 -18 -42 -31 -62 -14 -20 -23 -37 -20 -37 6 0 -50 -83
-69 -102 -7 -7 -21 -25 -31 -40 -10 -15 -23 -25 -29 -21 -5 3 -7 2 -4 -4 8
-13 -128 -147 -142 -139 -6 4 -9 2 -6 -7 4 -8 -6 -19 -22 -28 -15 -8 -36 -21
-46 -29 -44 -37 -262 -150 -290 -150 -7 0 -18 -5 -24 -11 -5 -5 -26 -11 -46
-12 -19 -1 -33 -5 -31 -8 4 -7 -96 -33 -165 -44 -19 -3 -37 -7 -40 -9 -6 -3
-140 -16 -218 -21 -18 -1 -33 3 -33 9 0 6 -5 4 -10 -4 -8 -12 -13 -13 -29 -3
-11 7 -22 9 -25 4 -3 -5 -17 -8 -31 -8 -15 0 -22 4 -18 11 4 7 1 6 -9 -1 -8
-7 -17 -11 -20 -8 -3 3 -36 7 -74 9 -170 11 -462 82 -625 153 -24 11 -64 28
-89 38 -25 11 -67 32 -93 47 -26 15 -51 28 -55 28 -8 0 -189 112 -240 148 -18
13 -30 28 -27 33 4 5 0 7 -7 4 -7 -3 -24 5 -38 18 -14 13 -32 27 -41 33 -40
23 -168 148 -162 158 3 6 2 8 -2 3 -10 -9 -66 43 -59 55 3 4 -1 8 -8 8 -14 0
-30 16 -96 97 -24 29 -41 57 -37 63 4 6 1 9 -6 8 -16 -4 -141 182 -134 200 2
7 0 10 -5 7 -13 -8 -124 221 -114 237 4 7 4 10 -1 6 -9 -9 -65 144 -69 193 -2
19 -8 45 -14 56 -17 31 -23 85 -27 258 -5 235 33 407 129 590 59 111 136 211
151 197 5 -4 5 -1 1 6 -9 15 122 144 137 135 6 -3 7 -2 4 4 -3 5 22 30 57 55
81 58 104 71 118 62 6 -4 8 -3 5 3 -3 5 11 19 31 30 62 35 213 94 223 88 5 -4
9 -2 9 3 0 5 6 9 13 10 6 1 44 10 83 21 78 21 109 27 204 37 36 3 67 8 69 10
6 6 336 -4 396 -11z m3125 -2441 c30 -3 56 -10 58 -14 2 -4 11 -6 20 -3 19 4
156 -25 262 -56 44 -12 64 -23 62 -32 -3 -11 -1 -11 8 -3 9 9 29 5 78 -14 37
-13 71 -29 77 -33 5 -5 17 -9 27 -9 10 0 18 -4 18 -10 0 -5 3 -9 8 -8 17 5
248 -122 319 -175 18 -13 29 -28 25 -32 -4 -5 -2 -5 4 -2 13 8 160 -109 156
-124 -1 -6 1 -8 6 -5 9 5 113 -99 164 -164 15 -19 34 -44 43 -55 58 -72 178
-292 187 -340 1 -11 6 -22 9 -25 7 -6 40 -125 46 -165 2 -16 8 -43 12 -60 11
-44 11 -265 -1 -265 -5 0 -7 -4 -4 -9 9 -14 -5 -101 -15 -95 -5 3 -6 -2 -3
-10 7 -18 -29 -134 -63 -203 -22 -46 -28 -52 -41 -41 -13 12 -14 11 -2 -8 11
-19 8 -28 -30 -84 -69 -102 -203 -250 -227 -250 -7 0 -13 -4 -13 -8 0 -15 -90
-73 -102 -66 -6 4 -8 3 -5 -4 4 -6 -15 -24 -43 -41 -27 -17 -50 -27 -50 -23 0
4 -4 2 -8 -4 -11 -17 -146 -79 -237 -109 -70 -24 -93 -30 -140 -39 -5 -1 -14
-4 -20 -7 -5 -4 -20 -5 -32 -4 -13 1 -23 -2 -23 -7 0 -5 -4 -7 -9 -4 -5 4 -21
2 -35 -4 -14 -5 -56 -12 -93 -15 -37 -2 -85 -8 -107 -11 -31 -5 -37 -3 -31 7
6 11 5 12 -6 2 -8 -8 -44 -13 -99 -13 -55 0 -91 5 -99 13 -11 9 -12 9 -7 0 5
-9 -3 -11 -31 -8 -205 23 -226 26 -239 36 -6 5 -13 6 -16 3 -3 -3 -23 -1 -44
5 -22 6 -48 12 -59 14 -99 17 -426 142 -446 170 -3 5 -10 9 -15 9 -21 1 -185
94 -228 129 -6 5 -36 28 -66 51 -118 90 -264 234 -254 250 4 6 3 8 -3 5 -10
-6 -59 48 -61 66 0 5 -8 14 -18 21 -11 8 -14 18 -9 26 5 8 4 11 -2 7 -18 -11
-146 204 -155 258 -2 11 -9 26 -16 34 -8 8 -11 22 -9 33 3 11 1 16 -6 11 -6
-4 -8 0 -4 10 3 10 3 17 -1 17 -13 0 -49 173 -56 265 -1 11 3 23 9 27 6 5 6 8
-2 8 -7 0 -13 9 -13 20 0 11 6 20 13 20 8 0 9 2 1 8 -9 5 -13 77 -5 77 1 0 4
20 5 45 4 50 9 74 39 175 25 88 105 247 120 238 5 -3 7 -1 4 4 -12 19 143 212
164 206 5 -2 9 2 9 7 0 11 60 69 72 70 4 0 18 11 32 23 35 33 170 115 201 123
14 3 25 10 25 15 0 5 7 9 15 9 8 0 29 8 47 18 56 32 257 94 314 97 17 1 35 4
40 8 14 8 51 14 132 23 37 3 69 8 71 10 6 6 340 -4 401 -12z"/>
<path d="M1590 5996 c0 -2 8 -10 18 -17 15 -13 16 -12 3 4 -13 16 -21 21 -21
13z"/>
<path d="M1215 5961 c-3 -5 -2 -12 3 -15 5 -3 9 1 9 9 0 17 -3 19 -12 6z"/>
<path d="M2067 5819 c7 -7 15 -10 18 -7 3 3 -2 9 -12 12 -14 6 -15 5 -6 -5z"/>
<path d="M2215 5721 c-3 -5 -2 -12 3 -15 5 -3 9 1 9 9 0 17 -3 19 -12 6z"/>
<path d="M2333 5715 c0 -8 4 -12 9 -9 5 3 6 10 3 15 -9 13 -12 11 -12 -6z"/>
<path d="M2456 5713 c-6 -14 -5 -15 5 -6 7 7 10 15 7 18 -3 3 -9 -2 -12 -12z"/>
<path d="M1585 5460 c-3 -6 1 -7 9 -4 18 7 21 14 7 14 -6 0 -13 -4 -16 -10z"/>
<path d="M2230 5466 c0 -2 7 -7 16 -10 8 -3 12 -2 9 4 -6 10 -25 14 -25 6z"/>
<path d="M1600 5300 c-9 -6 -10 -10 -3 -10 6 0 15 5 18 10 8 12 4 12 -15 0z"/>
<path d="M2226 5298 c3 -5 10 -6 15 -3 13 9 11 12 -6 12 -8 0 -12 -4 -9 -9z"/>
<path d="M2227 5179 c7 -7 15 -10 18 -7 3 3 -2 9 -12 12 -14 6 -15 5 -6 -5z"/>
<path d="M787 4859 c7 -7 15 -10 18 -7 3 3 -2 9 -12 12 -14 6 -15 5 -6 -5z"/>
<path d="M1760 4860 c-9 -6 -10 -10 -3 -10 6 0 15 5 18 10 8 12 4 12 -15 0z"/>
<path d="M2235 4771 c-3 -5 -2 -12 3 -15 5 -3 9 1 9 9 0 17 -3 19 -12 6z"/>
<path d="M2666 4758 c3 -4 9 -8 15 -8 5 0 9 4 9 8 0 5 -7 9 -15 9 -8 0 -12 -4
-9 -9z"/>
<path d="M2650 4601 c0 -6 4 -13 10 -16 6 -3 7 1 4 9 -7 18 -14 21 -14 7z"/>
<path d="M3676 4487 c3 -10 9 -15 12 -12 3 3 0 11 -7 18 -10 9 -11 8 -5 -6z"/>
<path d="M906 4442 c-3 -5 1 -9 9 -9 8 0 15 4 15 9 0 4 -4 8 -9 8 -6 0 -12 -4
-15 -8z"/>
<path d="M1160 4440 c-9 -6 -10 -10 -3 -10 6 0 15 5 18 10 8 12 4 12 -15 0z"/>
<path d="M1630 4440 c0 -5 5 -10 10 -10 6 0 10 5 10 10 0 6 -4 10 -10 10 -5 0
-10 -4 -10 -10z"/>
<path d="M1176 4273 c-6 -14 -5 -15 5 -6 7 7 10 15 7 18 -3 3 -9 -2 -12 -12z"/>
<path d="M949 4263 c-13 -16 -12 -17 4 -4 9 7 17 15 17 17 0 8 -8 3 -21 -13z"/>
<path d="M955 4121 c-3 -5 -2 -12 3 -15 5 -3 9 1 9 9 0 17 -3 19 -12 6z"/>
<path d="M2235 4121 c-3 -5 -2 -12 3 -15 5 -3 9 1 9 9 0 17 -3 19 -12 6z"/>
<path d="M1750 4026 c0 -2 7 -7 16 -10 8 -3 12 -2 9 4 -6 10 -25 14 -25 6z"/>
<path d="M3695 3969 c-4 -6 -5 -12 -2 -15 2 -3 7 2 10 11 7 17 1 20 -8 4z"/>
<path d="M954 3846 c1 -8 5 -18 8 -22 4 -3 5 1 4 10 -1 8 -5 18 -8 22 -4 3 -5
-1 -4 -10z"/>
<path d="M2225 3700 c-3 -6 1 -7 9 -4 18 7 21 14 7 14 -6 0 -13 -4 -16 -10z"/>
<path d="M2226 3582 c-3 -5 1 -9 9 -9 8 0 12 4 9 9 -3 4 -7 8 -9 8 -2 0 -6 -4
-9 -8z"/>
<path d="M3626 3558 c3 -4 9 -8 15 -8 5 0 9 4 9 8 0 5 -7 9 -15 9 -8 0 -12 -4
-9 -9z"/>
<path d="M1587 3299 c7 -7 15 -10 18 -7 3 3 -2 9 -12 12 -14 6 -15 5 -6 -5z"/>
<path d="M2333 3165 c0 -8 4 -12 9 -9 5 3 6 10 3 15 -9 13 -12 11 -12 -6z"/>
<path d="M2456 3167 c3 -10 9 -15 12 -12 3 3 0 11 -7 18 -10 9 -11 8 -5 -6z"/>
<path d="M2736 3007 c3 -10 9 -15 12 -12 3 3 0 11 -7 18 -10 9 -11 8 -5 -6z"/>
<path d="M4150 3176 c0 -2 8 -10 18 -17 15 -13 16 -12 3 4 -13 16 -21 21 -21
13z"/>
<path d="M4310 3066 c0 -2 7 -7 16 -10 8 -3 12 -2 9 4 -6 10 -25 14 -25 6z"/>
<path d="M4153 3045 c0 -8 4 -15 9 -15 4 0 8 4 8 9 0 6 -4 12 -8 15 -5 3 -9
-1 -9 -9z"/>
<path d="M3655 3011 c-3 -5 -2 -12 3 -15 5 -3 9 1 9 9 0 17 -3 19 -12 6z"/>
<path d="M5535 3009 c-4 -6 -5 -12 -2 -15 2 -3 7 2 10 11 7 17 1 20 -8 4z"/>
<path d="M3736 2993 c-6 -14 -5 -15 5 -6 7 7 10 15 7 18 -3 3 -9 -2 -12 -12z"/>
<path d="M5907 2939 c7 -7 15 -10 18 -7 3 3 -2 9 -12 12 -14 6 -15 5 -6 -5z"/>
<path d="M5436 2842 c-3 -5 1 -9 9 -9 8 0 12 4 9 9 -3 4 -7 8 -9 8 -2 0 -6 -4
-9 -8z"/>
<path d="M3513 2555 c0 -8 4 -12 9 -9 4 3 8 9 8 15 0 5 -4 9 -8 9 -5 0 -9 -7
-9 -15z"/>
<path d="M3456 2527 c3 -10 9 -15 12 -12 3 3 0 11 -7 18 -10 9 -11 8 -5 -6z"/>
<path d="M4376 2353 c-6 -14 -5 -15 5 -6 7 7 10 15 7 18 -3 3 -9 -2 -12 -12z"/>
<path d="M6160 2366 c0 -2 8 -10 18 -17 15 -13 16 -12 3 4 -13 16 -21 21 -21
13z"/>
<path d="M4149 2343 c-13 -16 -12 -17 4 -4 16 13 21 21 13 21 -2 0 -10 -8 -17
-17z"/>
<path d="M5425 2300 c-3 -6 1 -7 9 -4 18 7 21 14 7 14 -6 0 -13 -4 -16 -10z"/>
<path d="M4155 2201 c-3 -5 -2 -12 3 -15 5 -3 9 1 9 9 0 17 -3 19 -12 6z"/>
<path d="M5440 2140 c-9 -6 -10 -10 -3 -10 6 0 15 5 18 10 8 12 4 12 -15 0z"/>
<path d="M4800 1980 c-9 -6 -10 -10 -3 -10 6 0 15 5 18 10 8 12 4 12 -15 0z"/>
<path d="M4154 1926 c1 -8 5 -18 8 -22 4 -3 5 1 4 10 -1 8 -5 18 -8 22 -4 3
-5 -1 -4 -10z"/>
<path d="M5415 1889 c-4 -6 -5 -12 -2 -15 2 -3 7 2 10 11 7 17 1 20 -8 4z"/>
<path d="M5650 1896 c0 -2 8 -10 18 -17 15 -13 16 -12 3 4 -13 16 -21 21 -21
13z"/>
<path d="M4655 1569 c-4 -6 -5 -12 -2 -15 2 -3 7 2 10 11 7 17 1 20 -8 4z"/>
<path d="M4796 1562 c-3 -5 1 -9 9 -9 8 0 12 4 9 9 -3 4 -7 8 -9 8 -2 0 -6 -4
-9 -8z"/>
<path d="M5066 1558 c3 -4 9 -8 15 -8 5 0 9 4 9 8 0 5 -7 9 -15 9 -8 0 -12 -4
-9 -9z"/>
<path d="M6186 1558 c3 -4 9 -8 15 -8 5 0 9 4 9 8 0 5 -7 9 -15 9 -8 0 -12 -4
-9 -9z"/>
<path d="M5105 1499 c-3 -4 2 -6 10 -5 21 3 28 13 10 13 -9 0 -18 -4 -20 -8z"/>
<path d="M4010 1416 c0 -2 8 -10 18 -17 15 -13 16 -12 3 4 -13 16 -21 21 -21
13z"/>
<path d="M6253 1405 c0 -8 4 -12 9 -9 5 3 6 10 3 15 -9 13 -12 11 -12 -6z"/>
<path d="M6170 1401 c0 -6 4 -13 10 -16 6 -3 7 1 4 9 -7 18 -14 21 -14 7z"/>
<path d="M5100 1386 c0 -2 8 -10 18 -17 15 -13 16 -12 3 4 -13 16 -21 21 -21
13z"/>
<path d="M4640 1340 c-9 -6 -10 -10 -3 -10 6 0 15 5 18 10 8 12 4 12 -15 0z"/>
<path d="M5333 1245 c0 -8 4 -12 9 -9 5 3 6 10 3 15 -9 13 -12 11 -12 -6z"/>
<path d="M4616 1233 c-6 -14 -5 -15 5 -6 7 7 10 15 7 18 -3 3 -9 -2 -12 -12z"/>
<path d="M5839 1233 c-13 -16 -12 -17 4 -4 16 13 21 21 13 21 -2 0 -10 -8 -17
-17z"/>
</g>
</svg>
